<!-- Generated by npm run themes:previews. -->
<svg xmlns="http://www.w3.org/2000/svg" width="480" height="270" viewBox="0 0 480 270" role="img" aria-labelledby="title description">
  <title id="title">Plum presentation theme preview</title>
  <desc id="description">A sample title slide and cards using the Plum color palette.</desc>
  <rect width="480" height="270" rx="12" fill="#171221"/>
  <circle cx="422" cy="38" r="92" fill="#bd93f9" opacity="0.12"/>
  <rect x="32" y="30" width="42" height="5" rx="2.5" fill="#bd93f9"/>
  <text x="32" y="63" fill="#bd93f9" font-family="Arial, sans-serif" font-size="11" font-weight="700" letter-spacing="2">PRESENTATION</text>
  <text x="32" y="111" fill="#ffffff" font-family="Arial, sans-serif" font-size="36" font-weight="700">Plum</text>
  <text x="32" y="137" fill="#c4b1da" font-family="Arial, sans-serif" font-size="15">A focused theme for clear ideas.</text>
  <g transform="translate(32 169)">
    <rect width="126" height="67" rx="10" fill="#251b35" stroke="#c4b1da" stroke-opacity="0.35"/>
    <rect x="16" y="16" width="38" height="4" rx="2" fill="#bd93f9"/>
    <rect x="16" y="31" width="82" height="5" rx="2.5" fill="#f8f3ff" opacity="0.85"/>
    <rect x="16" y="45" width="62" height="4" rx="2" fill="#c4b1da" opacity="0.75"/>
  </g>
  <g transform="translate(169 169)">
    <rect width="126" height="67" rx="10" fill="#251b35" stroke="#c4b1da" stroke-opacity="0.35"/>
    <rect x="16" y="16" width="38" height="4" rx="2" fill="#bd93f9"/>
    <rect x="16" y="31" width="72" height="5" rx="2.5" fill="#f8f3ff" opacity="0.85"/>
    <rect x="16" y="45" width="88" height="4" rx="2" fill="#c4b1da" opacity="0.75"/>
  </g>
  <g transform="translate(306 169)">
    <rect width="126" height="67" rx="10" fill="#251b35" stroke="#c4b1da" stroke-opacity="0.35"/>
    <rect x="16" y="16" width="38" height="4" rx="2" fill="#bd93f9"/>
    <rect x="16" y="31" width="80" height="5" rx="2.5" fill="#f8f3ff" opacity="0.85"/>
    <rect x="16" y="45" width="54" height="4" rx="2" fill="#c4b1da" opacity="0.75"/>
  </g>
  <rect x="32" y="257" width="416" height="3" rx="1.5" fill="#bd93f9"/>
</svg>
